<?xml version="1.0" encoding="UTF-8" ?>
<!DOCTYPE svg PUBLIC "-//W3C//DTD SVG 1.1//EN" "http://www.w3.org/Graphics/SVG/1.1/DTD/svg11.dtd">
<svg width="96pt" height="24pt" viewBox="0 0 96 24" version="1.1" xmlns="http://www.w3.org/2000/svg">
<path fill="#fcfefc" d=" M 0.00 0.00 L 96.00 0.00 L 96.00 0.54 C 95.48 0.95 94.43 1.78 93.91 2.19 C 87.30 1.86 80.68 1.94 74.07 2.07 C 73.94 8.68 73.86 15.29 74.18 21.90 C 73.79 22.42 73.00 23.47 72.61 24.00 L 71.93 24.00 C 72.07 16.44 71.96 8.88 72.04 1.32 C 71.47 1.40 70.31 1.56 69.73 1.65 C 63.20 2.33 56.62 1.82 50.07 2.07 C 49.94 8.68 49.86 15.29 50.18 21.90 C 49.79 22.42 49.00 23.47 48.61 24.00 L 47.93 24.00 C 48.07 16.44 47.96 8.88 48.05 1.32 C 47.47 1.40 46.31 1.56 45.73 1.65 C 39.20 2.33 32.62 1.82 26.07 2.07 C 25.94 8.68 25.86 15.29 26.19 21.90 C 25.79 22.42 25.00 23.47 24.61 24.00 L 23.94 24.00 C 24.07 16.44 23.96 8.88 24.04 1.32 C 23.47 1.40 22.31 1.56 21.73 1.65 C 15.20 2.33 8.63 1.82 2.08 2.07 C 1.79 8.65 2.18 15.23 1.97 21.80 C 1.69 22.35 1.11 23.45 0.82 24.00 L 0.00 24.00 L 0.00 0.00 Z" />
<path fill="#848284" d=" M 21.73 1.65 C 22.31 1.56 23.47 1.40 24.04 1.32 C 23.96 8.88 24.07 16.44 23.94 24.00 L 0.82 24.00 C 1.11 23.45 1.69 22.35 1.97 21.80 C 8.62 22.12 15.27 22.07 21.92 21.93 C 22.10 15.17 22.13 8.40 21.73 1.65 Z" />
<path fill="#848284" d=" M 45.73 1.65 C 46.31 1.56 47.47 1.40 48.05 1.32 C 47.96 8.88 48.07 16.44 47.93 24.00 L 24.61 24.00 C 25.00 23.47 25.79 22.42 26.19 21.90 C 32.76 22.04 39.35 22.10 45.93 21.93 C 46.10 15.17 46.13 8.40 45.73 1.65 Z" />
<path fill="#848284" d=" M 69.73 1.65 C 70.31 1.56 71.47 1.40 72.04 1.32 C 71.96 8.88 72.07 16.44 71.93 24.00 L 48.61 24.00 C 49.00 23.47 49.79 22.42 50.18 21.90 C 56.76 22.04 63.35 22.10 69.92 21.93 C 70.10 15.17 70.13 8.40 69.73 1.65 Z" />
<path fill="#848284" d=" M 93.91 2.19 C 94.43 1.78 95.48 0.95 96.00 0.54 L 96.00 24.00 L 72.61 24.00 C 73.00 23.47 73.79 22.42 74.18 21.90 C 80.76 22.04 87.35 22.10 93.93 21.93 C 94.10 15.35 94.03 8.77 93.91 2.19 Z" />
<path fill="#c4c2c4" d=" M 2.08 2.07 C 8.63 1.82 15.20 2.33 21.73 1.65 C 22.13 8.40 22.10 15.17 21.92 21.93 C 15.27 22.07 8.62 22.12 1.97 21.80 C 2.18 15.23 1.79 8.65 2.08 2.07 Z" />
<path fill="#c4c2c4" d=" M 26.07 2.07 C 32.62 1.82 39.20 2.33 45.73 1.65 C 46.13 8.40 46.10 15.17 45.93 21.93 C 39.35 22.10 32.76 22.04 26.19 21.90 C 25.86 15.29 25.94 8.68 26.07 2.07 Z" />
<path fill="#c4c2c4" d=" M 50.07 2.07 C 56.62 1.82 63.20 2.33 69.73 1.65 C 70.13 8.40 70.10 15.17 69.92 21.93 C 63.35 22.10 56.76 22.04 50.18 21.90 C 49.86 15.29 49.94 8.68 50.07 2.07 Z" />
<path fill="#c4c2c4" d=" M 74.07 2.07 C 80.68 1.94 87.30 1.86 93.91 2.19 C 94.03 8.77 94.10 15.35 93.93 21.93 C 87.35 22.10 80.76 22.04 74.18 21.90 C 73.86 15.29 73.94 8.68 74.07 2.07 Z" />
<path fill="#040204" d=" M 9.51 4.67 C 15.77 1.35 24.06 10.18 19.97 16.18 C 18.19 19.19 14.73 21.67 11.09 20.99 C 7.75 19.96 5.04 17.25 4.01 13.91 C 3.31 10.01 6.13 6.31 9.51 4.67 Z" />
<path fill="#040204" d=" M 33.51 4.67 C 39.77 1.35 48.06 10.18 43.97 16.18 C 42.19 19.20 38.72 21.67 35.09 20.99 C 31.75 19.96 29.04 17.25 28.01 13.92 C 27.31 10.02 30.13 6.31 33.51 4.67 Z" />
<path fill="#040204" d=" M 57.51 4.67 C 63.77 1.35 72.06 10.18 67.97 16.18 C 66.19 19.19 62.73 21.67 59.08 20.99 C 55.75 19.96 53.04 17.25 52.01 13.91 C 51.31 10.01 54.14 6.31 57.51 4.67 Z" />
<path fill="#040204" d=" M 81.50 4.67 C 87.77 1.35 96.07 10.19 91.97 16.18 C 90.19 19.19 86.73 21.67 83.09 20.99 C 79.75 19.97 77.05 17.24 76.00 13.92 C 75.31 10.02 78.13 6.31 81.50 4.67 Z" />
<path fill="#fcfe04" d=" M 10.38 5.26 C 13.92 4.00 17.99 6.31 19.40 9.65 C 21.35 13.25 18.93 17.91 15.35 19.40 C 11.75 21.35 7.09 18.93 5.60 15.35 C 3.50 11.44 6.45 6.56 10.38 5.26 Z" />
<path fill="#fcfe04" d=" M 34.38 5.26 C 37.92 4.00 41.99 6.31 43.40 9.65 C 45.35 13.25 42.93 17.91 39.35 19.40 C 35.75 21.35 31.08 18.93 29.60 15.35 C 27.50 11.43 30.45 6.56 34.38 5.26 Z" />
<path fill="#fcfe04" d=" M 58.38 5.26 C 61.92 4.00 65.99 6.31 67.40 9.65 C 69.35 13.25 66.93 17.91 63.35 19.40 C 59.75 21.36 55.09 18.93 53.60 15.35 C 51.50 11.44 54.45 6.56 58.38 5.26 Z" />
<path fill="#fcfe04" d=" M 76.63 12.36 C 77.43 8.45 80.64 4.62 84.94 4.94 C 88.90 5.17 91.57 8.74 92.37 12.36 C 91.06 11.36 89.84 10.23 88.52 9.25 C 86.42 8.76 84.23 8.95 82.09 8.99 C 79.74 8.90 78.45 11.27 76.63 12.36 Z" />
<path fill="#040204" d=" M 32.03 8.67 C 32.87 8.13 34.90 7.89 35.17 9.20 C 35.70 11.67 30.47 11.05 32.03 8.67 Z" />
<path fill="#040204" d=" M 38.03 8.67 C 38.87 8.13 40.89 7.89 41.17 9.20 C 41.71 11.67 36.47 11.06 38.03 8.67 Z" />
<path fill="#040204" d=" M 56.21 8.21 C 56.86 8.21 58.14 8.21 58.78 8.21 C 58.79 8.86 58.79 10.14 58.79 10.78 C 58.15 10.78 56.86 10.79 56.21 10.79 C 56.21 10.14 56.21 8.86 56.21 8.21 Z" />
<path fill="#040204" d=" M 62.21 8.21 C 62.86 8.21 64.14 8.21 64.79 8.21 C 64.79 8.86 64.79 10.14 64.79 10.79 C 64.14 10.79 62.85 10.78 62.21 10.78 C 62.21 10.14 62.21 8.86 62.21 8.21 Z" />
<path fill="#040204" d=" M 9.17 9.17 C 10.80 8.65 11.35 9.20 10.83 10.83 C 9.20 11.35 8.65 10.80 9.17 9.17 Z" />
<path fill="#040204" d=" M 14.17 9.17 C 15.80 8.65 16.35 9.20 15.83 10.83 C 14.20 11.35 13.65 10.79 14.17 9.17 Z" />
<path fill="#fcfe04" d=" M 84.45 9.83 C 85.04 10.94 85.63 12.06 86.24 13.16 C 87.71 12.74 89.16 12.29 90.63 11.88 C 91.04 12.39 91.85 13.41 92.26 13.92 C 90.79 16.83 88.51 19.92 84.94 20.06 C 81.03 20.43 78.27 17.11 76.75 13.92 C 77.15 13.41 77.96 12.38 78.36 11.86 C 79.83 12.32 81.30 12.78 82.79 13.18 C 83.36 12.07 83.92 10.95 84.45 9.83 Z" />
<path fill="#040204" d=" M 58.96 12.98 C 59.73 12.98 61.27 12.98 62.04 12.98 C 62.74 14.63 62.76 16.38 62.04 18.02 C 61.27 18.02 59.73 18.02 58.96 18.02 C 58.26 16.37 58.24 14.62 58.96 12.98 Z" />
<path fill="#040204" d=" M 7.49 13.93 C 9.04 14.56 10.33 15.99 12.07 16.04 C 14.17 16.39 15.73 14.71 17.51 13.93 C 16.10 15.62 14.55 17.67 12.04 17.06 C 9.88 17.39 8.81 15.21 7.49 13.93 Z" />
<path fill="#040204" d=" M 34.29 13.92 C 35.76 14.09 37.24 14.09 38.71 13.92 C 39.60 15.02 40.52 16.10 41.45 17.16 C 39.94 16.45 38.65 14.99 36.91 14.94 C 34.82 14.60 33.27 16.30 31.54 17.15 C 32.48 16.10 33.40 15.02 34.29 13.92 Z" />
<path fill="#fcfe04" d=" M 60.17 14.25 C 61.75 13.80 62.47 16.36 60.83 16.76 C 59.25 17.20 58.53 14.64 60.17 14.25 Z" />
<path fill="#040204" d=" M 80.30 15.44 C 83.08 16.01 85.92 16.01 88.70 15.44 C 86.30 17.60 82.70 17.60 80.30 15.44 Z" />
</svg>
