<?xml version="1.0" encoding="UTF-8" ?>
<!DOCTYPE svg PUBLIC "-//W3C//DTD SVG 1.1//EN" "http://www.w3.org/Graphics/SVG/1.1/DTD/svg11.dtd">
<svg width="196pt" height="14pt" viewBox="0 0 196 14" version="1.1" xmlns="http://www.w3.org/2000/svg">
<path fill="#c4c2c4" d=" M 0.00 0.00 L 112.00 0.00 C 111.99 4.67 112.00 9.33 112.02 14.00 L 0.00 14.00 L 0.00 0.00 Z" />
<path fill="#fc0204" d=" M 112.00 0.00 L 126.08 0.00 C 125.97 2.37 125.84 4.74 125.79 7.11 C 123.78 5.15 121.66 3.31 119.60 1.40 C 117.23 3.14 115.14 5.24 113.39 7.61 C 115.37 9.72 117.26 11.90 119.25 14.00 L 112.02 14.00 C 112.00 9.33 111.99 4.67 112.00 0.00 Z" />
<path fill="#c4c2c4" d=" M 126.08 0.00 L 140.04 0.00 C 139.90 4.20 139.62 8.47 140.65 12.59 C 141.00 8.79 141.08 4.98 141.10 1.17 C 145.05 1.25 149.01 0.92 152.86 0.00 L 168.18 0.00 C 167.96 2.35 167.76 4.70 167.57 7.05 C 165.98 4.65 163.80 2.76 161.21 1.51 C 159.22 3.31 157.34 5.22 155.54 7.20 C 156.85 9.90 158.81 12.18 161.20 14.00 L 153.98 14.00 C 153.93 9.53 154.63 4.94 153.29 0.58 C 152.90 4.66 152.95 8.77 152.93 12.87 C 148.66 12.79 144.38 13.06 140.21 14.00 L 126.03 14.00 C 125.96 11.96 125.89 9.92 125.82 7.87 L 125.79 7.11 C 125.84 4.74 125.97 2.37 126.08 0.00 Z" />
<path fill="#fcfefc" d=" M 140.04 0.00 L 152.86 0.00 C 149.01 0.92 145.05 1.25 141.10 1.17 C 141.08 4.98 141.00 8.79 140.65 12.59 C 139.62 8.47 139.90 4.20 140.04 0.00 Z" />
<path fill="#fcfefc" d=" M 168.18 0.00 L 180.86 0.00 C 177.01 0.86 173.06 1.21 169.12 1.16 C 169.05 4.97 168.95 8.77 168.77 12.58 C 168.32 11.02 167.87 9.46 167.51 7.88 L 167.57 7.05 C 167.76 4.70 167.96 2.35 168.18 0.00 Z" />
<path fill="#c4c2c4" d=" M 180.86 0.00 L 196.00 0.00 L 196.00 1.73 C 194.79 2.54 193.57 3.31 192.40 4.16 C 191.34 3.19 190.29 2.23 189.24 1.26 C 188.49 2.30 187.75 3.34 187.02 4.39 C 185.71 3.42 184.35 2.52 182.98 1.64 C 183.72 2.71 184.48 3.77 185.28 4.79 C 184.69 5.78 184.09 6.77 183.50 7.75 C 184.39 8.60 185.27 9.47 186.15 10.33 C 185.09 11.58 184.02 12.81 182.89 14.00 L 182.01 14.00 C 181.94 9.52 182.78 4.90 181.30 0.57 C 180.89 4.66 180.95 8.77 180.93 12.87 C 176.66 12.79 172.39 13.05 168.23 14.00 L 161.84 14.00 C 163.89 12.12 165.83 10.11 167.51 7.88 C 167.87 9.46 168.32 11.02 168.77 12.58 C 168.95 8.77 169.05 4.97 169.12 1.16 C 173.06 1.21 177.01 0.86 180.86 0.00 Z" />
<path fill="#040204" d=" M 113.39 7.61 C 115.14 5.24 117.23 3.14 119.60 1.40 C 121.66 3.31 123.78 5.15 125.79 7.11 L 125.82 7.87 C 123.60 9.71 121.58 11.78 119.74 14.00 L 119.25 14.00 C 117.26 11.90 115.37 9.72 113.39 7.61 Z" />
<path fill="#848284" d=" M 153.29 0.58 C 154.63 4.94 153.93 9.53 153.98 14.00 L 140.21 14.00 C 144.38 13.06 148.66 12.79 152.93 12.87 C 152.95 8.77 152.90 4.66 153.29 0.58 Z" />
<path fill="#040204" d=" M 161.21 1.51 C 163.80 2.76 165.98 4.65 167.57 7.05 L 167.51 7.88 C 165.83 10.11 163.89 12.12 161.84 14.00 L 161.20 14.00 C 158.81 12.18 156.85 9.90 155.54 7.20 C 157.34 5.22 159.22 3.31 161.21 1.51 Z" />
<path fill="#848284" d=" M 181.30 0.57 C 182.78 4.90 181.94 9.52 182.01 14.00 L 168.23 14.00 C 172.39 13.05 176.66 12.79 180.93 12.87 C 180.95 8.77 180.89 4.66 181.30 0.57 Z" />
<path fill="#000000" d=" M 189.24 1.26 C 190.29 2.23 191.34 3.19 192.40 4.16 C 191.42 4.90 190.46 5.67 189.50 6.43 C 189.27 6.23 188.82 5.85 188.59 5.65 C 188.50 5.58 188.33 5.44 188.25 5.37 C 187.94 5.13 187.32 4.64 187.02 4.39 C 187.75 3.34 188.49 2.30 189.24 1.26 Z" />
<path fill="#0402fc" d=" M 4.26 5.28 C 5.49 3.76 6.97 2.44 8.81 1.70 C 8.89 5.27 8.72 9.07 11.12 12.00 C 8.70 12.02 6.27 12.02 3.85 11.99 C 5.39 9.93 7.17 7.12 4.26 5.28 Z" />
<path fill="#048204" d=" M 15.74 4.97 C 16.58 0.26 23.11 1.60 26.24 3.12 C 26.46 6.94 22.36 8.12 19.80 9.89 C 21.86 9.97 23.93 10.03 26.00 10.10 C 26.00 10.56 25.99 11.49 25.98 11.95 C 22.65 12.09 19.31 12.08 15.98 11.92 C 15.99 11.22 16.02 9.84 16.03 9.15 C 18.38 7.40 22.30 7.04 23.21 3.94 C 20.71 4.21 18.23 4.63 15.74 4.97 Z" />
<path fill="#fc0204" d=" M 30.02 2.04 C 33.12 2.40 37.41 0.69 39.70 3.29 C 39.52 5.91 40.29 8.89 39.29 11.29 C 36.61 12.83 33.04 11.78 30.02 11.96 C 30.01 11.50 30.01 10.56 30.00 10.09 C 32.40 10.03 34.80 9.97 37.19 9.89 C 37.30 7.40 34.42 8.18 32.81 7.69 C 32.89 4.88 37.38 7.11 37.20 4.11 C 34.80 4.02 32.41 3.97 30.01 3.91 C 30.01 3.44 30.01 2.50 30.02 2.04 Z" />
<path fill="#040284" d=" M 46.27 2.15 C 46.92 2.09 48.21 1.96 48.86 1.90 C 48.60 3.37 48.35 4.83 48.13 6.31 C 50.35 6.10 49.87 3.59 50.34 2.01 C 50.96 2.03 52.21 2.06 52.83 2.08 C 53.69 5.33 53.69 8.67 52.84 11.92 C 52.19 11.94 50.90 11.97 50.26 11.99 C 50.09 10.70 49.92 9.42 49.75 8.14 C 47.78 8.05 45.80 7.95 43.82 7.83 C 44.57 5.91 45.40 4.02 46.27 2.15 Z" />
<path fill="#840204" d=" M 58.00 2.06 C 61.32 1.92 64.66 1.91 67.98 2.05 C 67.99 2.51 67.99 3.45 67.99 3.91 C 65.66 3.97 63.33 4.03 61.00 4.09 C 61.01 4.53 61.03 5.40 61.04 5.83 C 63.32 6.23 66.26 5.32 67.94 7.30 C 68.08 8.88 68.52 10.99 66.71 11.80 C 63.84 12.30 60.91 12.02 58.02 11.96 C 58.02 11.49 58.01 10.55 58.01 10.09 C 60.33 10.03 62.66 9.97 64.99 9.91 C 64.99 9.45 64.99 8.55 64.99 8.10 C 62.66 8.03 60.32 7.97 57.99 7.90 C 58.00 5.95 58.00 4.01 58.00 2.06 Z" />
<path fill="#048284" d=" M 72.66 2.66 C 75.11 1.26 78.26 2.17 80.99 2.02 C 80.98 2.48 80.98 3.41 80.98 3.88 C 78.99 3.96 77.00 4.04 75.02 4.13 C 75.02 4.55 75.03 5.40 75.03 5.82 C 76.64 5.91 78.26 5.95 79.86 6.14 C 82.99 6.11 82.92 11.93 79.86 11.96 C 77.38 11.91 73.89 13.01 72.18 10.70 C 71.91 8.09 71.34 5.01 72.66 2.66 Z" />
<path fill="#840284" d=" M 86.02 2.05 C 89.43 1.90 92.85 1.90 96.26 2.15 C 95.44 6.13 92.29 8.94 89.74 11.88 C 89.00 11.90 87.51 11.95 86.77 11.97 C 88.19 9.11 90.19 6.63 92.08 4.08 C 90.06 4.01 88.03 3.96 86.01 3.91 C 86.01 3.44 86.02 2.51 86.02 2.05 Z" />
<path fill="#040204" d=" M 100.26 3.28 C 101.14 1.48 103.39 2.07 105.00 1.88 C 106.68 1.97 109.86 1.53 109.74 4.05 C 109.26 6.58 110.81 9.91 108.73 11.82 C 105.86 12.17 102.63 12.63 100.07 10.95 C 100.42 8.41 100.25 5.84 100.26 3.28 Z" />
<path fill="#fc0204" d=" M 142.75 4.75 C 144.10 3.13 146.09 2.41 148.02 1.74 C 147.97 3.71 147.90 5.68 147.80 7.65 L 147.24 7.28 C 145.77 6.38 144.25 5.59 142.75 4.75 Z" />
<path fill="#ff0000" d=" M 182.98 1.64 C 184.35 2.52 185.71 3.42 187.02 4.39 C 187.32 4.64 187.94 5.13 188.25 5.37 C 188.33 5.44 188.50 5.58 188.59 5.65 C 188.82 5.85 189.27 6.23 189.50 6.43 C 190.46 5.67 191.42 4.90 192.40 4.16 C 193.57 3.31 194.79 2.54 196.00 1.73 L 196.00 2.79 C 194.92 3.24 194.04 3.94 193.36 4.87 C 192.52 5.95 191.67 7.02 190.83 8.09 C 191.48 8.80 192.14 9.50 192.81 10.19 C 193.85 11.25 194.94 12.27 196.00 13.32 L 196.00 14.00 L 193.95 14.00 C 193.65 12.90 193.05 12.01 192.14 11.35 C 191.31 10.67 190.49 9.98 189.67 9.29 C 188.74 9.98 187.80 10.67 186.87 11.35 C 185.91 11.98 185.30 12.86 185.04 14.00 L 182.89 14.00 C 184.02 12.81 185.09 11.58 186.15 10.33 C 186.81 9.55 187.46 8.77 188.11 7.99 C 187.15 6.93 186.19 5.88 185.28 4.79 C 184.48 3.77 183.72 2.71 182.98 1.64 Z" />
<path fill="#c0c0c0" d=" M 193.36 4.87 C 194.04 3.94 194.92 3.24 196.00 2.79 L 196.00 6.57 C 194.65 6.84 193.77 6.27 193.36 4.87 Z" />
<path fill="#c4c2c4" d=" M 103.01 3.99 C 104.34 3.99 105.66 3.99 106.99 3.99 C 106.99 4.50 106.99 5.51 106.99 6.01 C 105.66 6.01 104.33 6.01 103.01 6.01 C 103.01 5.50 103.01 4.49 103.01 3.99 Z" />
<path fill="#fcfefc" d=" M 117.17 5.17 C 118.80 4.64 119.35 5.20 118.83 6.83 C 117.20 7.35 116.65 6.79 117.17 5.17 Z" />
<path fill="#fcfefc" d=" M 159.17 5.17 C 160.80 4.65 161.35 5.20 160.84 6.83 C 159.21 7.35 158.65 6.80 159.17 5.17 Z" />
<path fill="#000000" d=" M 185.28 4.79 C 186.19 5.88 187.15 6.93 188.11 7.99 C 187.46 8.77 186.81 9.55 186.15 10.33 C 185.27 9.47 184.39 8.60 183.50 7.75 C 184.09 6.77 184.69 5.78 185.28 4.79 Z" />
<path fill="#ffffff" d=" M 188.25 5.37 C 188.33 5.44 188.50 5.58 188.59 5.65 C 188.50 5.58 188.33 5.44 188.25 5.37 Z" />
<path fill="#000000" d=" M 190.83 8.09 C 191.67 7.02 192.52 5.95 193.36 4.87 C 193.77 6.27 194.65 6.84 196.00 6.57 L 196.00 7.53 C 194.95 8.44 193.88 9.31 192.81 10.19 C 192.14 9.50 191.48 8.80 190.83 8.09 Z" />
<path fill="#040204" d=" M 147.24 7.28 L 147.80 7.65 C 149.22 8.82 150.21 10.41 151.29 11.89 C 148.41 12.08 145.53 12.11 142.66 11.86 C 143.94 10.11 145.59 8.68 147.24 7.28 Z" />
<path fill="#c4c2c4" d=" M 75.02 7.99 C 76.34 7.99 77.66 7.99 78.98 7.99 C 78.98 8.50 78.99 9.51 78.99 10.01 C 77.66 10.01 76.34 10.01 75.02 10.01 C 75.02 9.50 75.02 8.49 75.02 7.99 Z" />
<path fill="#c4c2c4" d=" M 103.01 7.99 C 104.34 7.99 105.66 7.99 106.99 7.99 C 106.99 8.49 106.99 9.50 106.99 10.01 C 105.66 10.01 104.33 10.01 103.01 10.01 C 103.01 9.51 103.01 8.50 103.01 7.99 Z" />
<path fill="#fc0204" d=" M 119.74 14.00 C 121.58 11.78 123.60 9.71 125.82 7.87 C 125.89 9.92 125.96 11.96 126.03 14.00 L 119.74 14.00 Z" />
<path fill="#c0c0c0" d=" M 192.81 10.19 C 193.88 9.31 194.95 8.44 196.00 7.53 L 196.00 13.32 C 194.94 12.27 193.85 11.25 192.81 10.19 Z" />
<path fill="#000000" d=" M 186.87 11.35 C 187.80 10.67 188.74 9.98 189.67 9.29 C 190.49 9.98 191.31 10.67 192.14 11.35 C 190.92 11.80 190.18 12.69 189.93 14.00 L 189.04 14.00 C 188.78 12.72 188.05 11.83 186.87 11.35 Z" />
<path fill="#c0c0c0" d=" M 185.04 14.00 C 185.30 12.86 185.91 11.98 186.87 11.35 C 188.05 11.83 188.78 12.72 189.04 14.00 L 185.04 14.00 Z" />
<path fill="#c0c0c0" d=" M 189.93 14.00 C 190.18 12.69 190.92 11.80 192.14 11.35 C 193.05 12.01 193.65 12.90 193.95 14.00 L 189.93 14.00 Z" />
</svg>
